<svg width="38" height="52" viewBox="0 0 38 52" fill="none" xmlns="http://www.w3.org/2000/svg">
    <path d="M37.152 34.344C37.152 37.608 36.456 40.512 35.064 43.056C33.72 45.6 31.656 47.616 28.872 49.104C26.088 50.592 22.656 51.336 18.576 51.336C12.48 51.336 7.84802 49.8 4.68002 46.728C1.56002 43.656 0 39.528 0 34.344V0H13.032L18.576 29.016C18.576 31.752 13.464 38.664 14.328 39.96C15.192 41.208 16.608 41.832 18.576 41.832C20.544 41.832 21.96 41.184 22.824 39.888C23.688 38.592 18.576 31.704 18.576 29.016L24.12 0H37.152V34.344Z" fill="white" />
</svg>