<svg xmlns="http://www.w3.org/2000/svg" xmlns:xlink="http://www.w3.org/1999/xlink" width="456" height="234.6" viewBox="0 0 456 234.6">
  <defs>
    <filter id="ULTRARIDE" x="42" y="43" width="413.5" height="124.5" filterUnits="userSpaceOnUse">
      <feOffset dx="10" dy="10" input="SourceAlpha" />
      <feGaussianBlur stdDeviation="2.5" result="blur" />
      <feFlood flood-opacity="0.161" />
      <feComposite operator="in" in2="blur" />
      <feComposite in="SourceGraphic" />
    </filter>
    <filter id="ULTRARIDE-2" x="32" y="27" width="413.5" height="124.5" filterUnits="userSpaceOnUse">
      <feOffset dx="10" dy="10" input="SourceAlpha" />
      <feGaussianBlur stdDeviation="2.5" result="blur-2" />
      <feFlood flood-opacity="0.161" />
      <feComposite operator="in" in2="blur-2" />
      <feComposite in="SourceGraphic" />
    </filter>
    <filter id="ULTRARIDE-3" x="19" y="11" width="413.5" height="124.5" filterUnits="userSpaceOnUse">
      <feOffset dx="10" dy="10" input="SourceAlpha" />
      <feGaussianBlur stdDeviation="2.5" result="blur-3" />
      <feFlood flood-opacity="0.161" />
      <feComposite operator="in" in2="blur-3" />
      <feComposite in="SourceGraphic" />
    </filter>
  </defs>
  <g id="Group_9" data-name="Group 9" transform="translate(265 385)">
    <g id="Group_8" data-name="Group 8" transform="translate(-10 -4)">
      <g id="Group_7" data-name="Group 7" transform="translate(-58 -50)">
        <rect id="Rectangle_8" data-name="Rectangle 8" width="456" height="234" transform="translate(-197 -331)" />
        <path id="Path_1" data-name="Path 1" d="M106-331-43.6-96.4H259.333V-331Z" transform="translate(-0.333)" fill="#ff4500" />
        <path id="Path_2" data-name="Path 2" d="M-44-97H-197.2V-331.067H31.6Z" transform="translate(0.2 0.067)" fill="#6500ea" />
        <text id="THE_LARGEST_RETAILER_OF_QUALITY_SHOES_IN_THE_WORLD._ENJOY." data-name="THE LARGEST RETAILER OF QUALITY SHOES IN THE WORLD. ENJOY." transform="translate(-171 -196)" fill="#fff" font-size="27" font-family="FiraSansCondensed-ExtraBoldItalic, Fira Sans" font-weight="800" font-style="italic">
          <tspan x="0" y="25">THE LARGEST RETAILER OF QUALITY </tspan>
          <tspan x="0" y="57">SHOES IN THE WORLD. ENJOY.</tspan>
        </text>
        <g id="Group_6" data-name="Group 6" transform="translate(0 -90)">
          <g transform="matrix(1, 0, 0, 1, -197, -241)" filter="url(#ULTRARIDE)">
            <text id="ULTRARIDE-4" data-name="ULTRARIDE" transform="translate(42 43)" fill="#fff" font-size="89" font-family="FiraSansCondensed-ExtraBoldItalic, Fira Sans" font-weight="800" font-style="italic" opacity="0.11">
              <tspan x="0" y="83">ULTRARIDE</tspan>
            </text>
          </g>
          <g transform="matrix(1, 0, 0, 1, -197, -241)" filter="url(#ULTRARIDE-2)">
            <text id="ULTRARIDE-5" data-name="ULTRARIDE" transform="translate(32 27)" fill="#fff" font-size="89" font-family="FiraSansCondensed-ExtraBoldItalic, Fira Sans" font-weight="800" font-style="italic" opacity="0.41">
              <tspan x="0" y="83">ULTRARIDE</tspan>
            </text>
          </g>
          <g transform="matrix(1, 0, 0, 1, -197, -241)" filter="url(#ULTRARIDE-3)">
            <text id="ULTRARIDE-6" data-name="ULTRARIDE" transform="translate(19 11)" fill="#fff" font-size="89" font-family="FiraSansCondensed-ExtraBoldItalic, Fira Sans" font-weight="800" font-style="italic">
              <tspan x="0" y="83">ULTRARIDE</tspan>
            </text>
          </g>
        </g>
      </g>
    </g>
    <path id="ultraride-logo" d="M22.292,20.607a10.712,10.712,0,0,1-1.253,5.227,8.7,8.7,0,0,1-3.715,3.629A12.978,12.978,0,0,1,11.146,30.8q-5.487,0-8.338-2.765A9.955,9.955,0,0,1,0,20.607V0H7.819l3.327,17.41c0,1.642-3.067,5.789-2.549,6.567A2.878,2.878,0,0,0,11.146,25.1a2.836,2.836,0,0,0,2.549-1.166c.518-.778-2.549-4.911-2.549-6.523L14.473,0h7.819Z" transform="translate(156.43 -190.733)" fill="#fff" />
  </g>
</svg>